<svg width="339" height="34" viewBox="0 0 339 34" fill="none" xmlns="http://www.w3.org/2000/svg">
<g filter="url(#filter0_d_51_16)">
<path d="M16.43 3.95C18.98 7.52 24.02 11.69 28.64 14.24C29.3 13.13 30.11 11.93 31.01 11C26.24 8.96 21.35 5.03 18.14 0.409999H14.39C12.17 4.13 7.30999 8.75 2.14999 11.36C2.92999 12.11 3.94999 13.43 4.42999 14.27C9.34999 11.54 13.94 7.49 16.43 3.95ZM6.22999 18.02V21.14H26.75V18.02H6.22999ZM7.75999 11.39V14.54H25.37V11.39H7.75999ZM3.82999 24.77V27.98H29.45V24.77H3.82999ZM14.54 12.8V26.57H18.35V12.8H14.54ZM42.17 23.99V27.47H58.73V23.99H42.17ZM40.55 15.38V28.67H44.24V18.83H56.75V28.67H60.62V15.38H40.55ZM46.43 0.289998C45.14 3.65 42.77 7.97 40.76 10.7L44 11.99C46.04 9.38 48.59 5.36 50.54 1.64L46.43 0.289998ZM53.63 5.66C56.63 8.24 60.05 11.9 61.46 14.42L64.61 12.02C63.05 9.44 59.45 5.96 56.48 3.56L53.63 5.66ZM37.37 9.02L37.58 12.68C43.49 12.44 52.49 12.08 60.8 11.63L60.98 8.15C52.73 8.51 43.43 8.87 37.37 9.02ZM83.09 9.2V21.98H86.3V9.2H83.09ZM94.16 9.2V21.5H97.43V9.2H94.16ZM88.52 0.589998V23.75C88.52 26.39 88.85 27.08 89.57 27.65C90.2 28.16 91.25 28.4 92.09 28.4C92.72 28.4 94.01 28.4 94.67 28.4C95.36 28.4 96.23 28.28 96.83 28.07C97.52 27.83 97.97 27.41 98.27 26.75C98.57 26.12 98.78 24.8 98.84 23.6C97.73 23.27 96.53 22.67 95.75 22.01C95.72 23.18 95.63 24.11 95.54 24.53C95.45 24.92 95.27 25.07 95.09 25.16C94.88 25.19 94.61 25.22 94.28 25.22C93.89 25.22 93.23 25.22 92.93 25.22C92.6 25.22 92.36 25.19 92.18 25.07C91.97 24.92 91.91 24.5 91.91 23.81V0.589998H88.52ZM95.57 2.42C92.27 3.65 86.63 4.49 81.65 4.85C82.01 5.6 82.46 6.92 82.58 7.73C87.77 7.4 93.92 6.62 98.15 5.12L95.57 2.42ZM84.74 17.12V20.36H95.72V17.12H84.74ZM75.05 0.559999C74.36 2.66 73.07 5.54 71.99 7.31L74.39 8.36C75.56 6.68 76.94 4.01 78.17 1.73L75.05 0.559999ZM78.5 4.1C76.94 7.34 74.18 11.75 71.96 14.48L74.03 15.65C76.31 13.04 79.25 8.87 81.41 5.42L78.5 4.1ZM70.43 7.67C71.96 9.11 73.79 11.21 74.51 12.65L76.37 9.86C75.59 8.48 73.73 6.59 72.14 5.21L70.43 7.67ZM77.6 11.27C78.74 13.34 79.76 16.07 80.09 17.81L82.64 16.67C82.28 14.93 81.14 12.29 79.97 10.28L77.6 11.27ZM70.4 13.76L70.7 16.91C73.61 16.7 77.45 16.46 81.14 16.19L81.17 13.34C77.21 13.52 73.16 13.67 70.4 13.76ZM78.26 18.74C78.92 20.51 79.7 22.82 80 24.32L82.64 23.39C82.31 21.89 81.53 19.64 80.78 17.93L78.26 18.74ZM71.69 18.17C71.45 20.72 70.97 23.39 70.1 25.16C70.85 25.46 72.2 26.09 72.83 26.48C73.7 24.56 74.36 21.56 74.66 18.68L71.69 18.17ZM75.05 15.35V28.73H78.2V15.35H75.05ZM105.44 3.05V6.29H131.99V3.05H105.44ZM107.6 9.59V12.95H130.01V9.59H107.6ZM105.29 16.22V19.61H132.17V16.22H105.29ZM111.86 0.529999V8.81H115.4V0.529999H111.86ZM121.85 0.529999V8.81H125.45V0.529999H121.85ZM116.99 10.61V24.47C116.99 24.95 116.81 25.1 116.18 25.1C115.52 25.1 113.21 25.1 111.17 25.04C111.71 25.97 112.37 27.59 112.55 28.61C115.31 28.61 117.38 28.55 118.76 28.01C120.17 27.47 120.65 26.51 120.65 24.53V10.61H116.99ZM139.1 1.91V5.24H151.22V1.91H139.1ZM142.94 10.16H147.35V12.95H142.94V10.16ZM139.91 7.34V15.77H150.56V7.34H139.91ZM146.6 16.19C146.45 18.05 146 20.66 145.55 22.34L148.31 23.03C148.85 21.5 149.48 19.13 150.11 16.94L146.6 16.19ZM140.27 17.18C140.84 18.89 141.23 21.11 141.26 22.55L144.32 21.77C144.23 20.3 143.78 18.14 143.15 16.46L140.27 17.18ZM138.59 24.02L139.43 27.38C142.85 26.57 147.44 25.52 151.7 24.5L151.4 21.44C146.75 22.43 141.83 23.45 138.59 24.02ZM151.94 1.73V4.76H166.52V1.73H151.94ZM155.96 13.76H162.38V15.68H155.96V13.76ZM155.96 18.14H162.38V20.09H155.96V18.14ZM155.96 9.41H162.38V11.33H155.96V9.41ZM152.66 6.8V22.7H165.83V6.8H152.66ZM157.04 3.41C156.95 4.88 156.62 6.92 156.32 8.36L159.44 8.93C159.95 7.64 160.58 5.75 161.15 3.86L157.04 3.41ZM155.51 22.85C154.25 24.08 151.64 25.67 149.39 26.45C150.17 27.08 151.22 28.1 151.76 28.76C154.07 27.89 156.8 26.24 158.45 24.74L155.51 22.85ZM159.65 24.8C161.33 25.94 163.55 27.65 164.57 28.73L167.45 26.84C166.28 25.76 164 24.14 162.38 23.09L159.65 24.8ZM184.94 3.35V11.51H188.51V3.35H184.94ZM174.8 1.73V4.61H197.15V1.73H174.8ZM196.25 1.73V2.18C195.83 3.71 195.02 5.66 194.36 6.86L197.51 7.67C198.35 6.32 199.31 4.16 200.03 2.24L197.39 1.58L196.79 1.73H196.25ZM186.92 6.11V8.54H195.23V6.11H186.92ZM180.53 6.95L178.22 7.7C180.38 12.44 184.04 13.19 190.31 13.19H199.79C199.97 12.23 200.48 10.73 200.96 10.01C198.74 10.1 192.14 10.1 190.37 10.1C185.45 10.1 182.15 9.8 180.53 6.95ZM179.36 17.9H193.97V19.79H179.36V17.9ZM175.97 15.26V22.43H197.6V15.26H175.97ZM185.03 13.67V26.36H188.6V13.67H185.03ZM173.54 24.65L173.75 27.98C179.75 27.83 188.66 27.47 196.94 27.08L197.09 24.41C188.24 24.56 179 24.68 173.54 24.65ZM191.48 23.39C193.85 25.07 196.91 27.53 198.59 29.09L200.9 26.84C199.25 25.43 196.16 23.06 193.76 21.44L191.48 23.39ZM178.49 5.06C177.44 8.24 175.22 10.88 172.46 12.44C173.03 13.25 173.87 15.05 174.14 15.89C177.65 13.7 180.35 10.07 181.82 5.87L178.49 5.06ZM218.48 5.24V8.54H234.38V5.24H218.48ZM219.08 10.79V14H233.48V10.79H219.08ZM218 16.49V19.91H234.62V16.49H218ZM224.27 6.92V18.68H228.02V6.92H224.27ZM220.1 1.46C220.82 2.78 221.51 4.58 221.75 5.69L225.26 4.64C224.99 3.53 224.18 1.82 223.43 0.559999L220.1 1.46ZM229.28 0.47C228.95 2 228.23 4.04 227.63 5.45L230.6 6.29C231.32 5.06 232.25 3.17 233.09 1.34L229.28 0.47ZM221.9 21.89C222.29 24.05 222.53 26.81 222.53 28.49L225.53 28.1C225.5 26.51 225.14 23.75 224.69 21.65L221.9 21.89ZM225.86 21.77C226.46 23.87 227.06 26.66 227.18 28.34L230.15 27.74C229.97 26.06 229.31 23.39 228.65 21.32L225.86 21.77ZM229.85 21.62C230.84 23.84 231.8 26.78 232.07 28.58L235.19 27.56C234.89 25.76 233.84 22.91 232.79 20.75L229.85 21.62ZM218.36 20.96C217.91 23.33 216.95 26.03 215.84 27.59L218.93 28.67C220.13 26.84 221.03 23.99 221.42 21.53L218.36 20.96ZM210.89 0.47V28.64H214.16V0.47H210.89ZM206.93 10.31V13.67H217.61V10.31H206.93ZM210.59 12.11C209.78 15.11 207.98 19.25 206.21 21.47C206.72 22.46 207.5 24.02 207.8 25.1C209.78 22.22 211.58 17.03 212.54 13.04L210.59 12.11ZM213.8 13.79L212.24 15.14C213.23 16.49 215.18 19.43 215.96 20.99L218.03 18.29C217.46 17.51 214.64 14.48 213.8 13.79ZM206.87 2.78C207.56 4.91 208.16 7.76 208.22 9.59L210.74 8.96C210.62 7.1 210.02 4.34 209.24 2.18L206.87 2.78ZM215.6 1.97C215.27 4.04 214.58 7.01 213.95 8.87L216.11 9.47C216.86 7.76 217.73 4.94 218.48 2.57L215.6 1.97ZM246.68 6.35V8.78H253.64V6.35H246.68ZM246.59 25.13V27.71H255.5V25.13H246.59ZM245.03 13.46V15.59H254.63V13.46H245.03ZM243.59 9.86V14.21C243.59 17.63 243.26 22.46 240.59 25.91C241.22 26.3 242.51 27.47 242.99 28.1C246.05 24.23 246.65 18.23 246.65 14.27V9.86H243.59ZM245.33 9.86V12.35H252.83V16.76H245.24V19.25H256.04V9.86H245.33ZM245.3 20.42V28.67H248.33V23H253.4V28.55H256.52V20.42H245.3ZM257.84 4.19V21.17H261.23V4.19H257.84ZM264.41 1.13V24.38C264.41 24.89 264.2 25.07 263.66 25.07C263.09 25.1 261.32 25.1 259.52 25.01C260.03 26.03 260.57 27.68 260.69 28.67C263.33 28.7 265.16 28.58 266.33 27.98C267.5 27.41 267.89 26.42 267.89 24.38V1.13H264.41ZM248.03 0.919999C246.59 3.35 244.04 6.17 240.44 8.24C241.13 8.78 242.18 10.01 242.63 10.82C246.71 8.18 249.35 5.09 251.15 2.66V1.64H250.04V0.919999H248.03ZM248.81 0.919999V3.44H249.44C251.39 4.88 253.97 7.46 255.23 8.96L257.54 6.32C256.07 4.76 253.34 2.51 251.24 0.919999H248.81ZM290.39 24.29V27.53H299.96V24.29H290.39ZM288.59 16.13V28.7H292.01V19.37H298.31V28.58H301.88V16.13H288.59ZM286.67 10.43L287.03 13.91C290.75 13.64 295.91 13.25 300.74 12.86L300.77 9.65C295.67 9.98 290.24 10.28 286.67 10.43ZM296.12 6.65C297.95 9.29 299.81 12.77 300.44 15.02L303.56 13.37C302.84 11.09 300.86 7.73 298.97 5.21L296.12 6.65ZM291.89 0.499999C291.23 3.92 289.88 8.54 288.65 11.51L291.68 12.29C293.03 9.47 294.65 5.09 295.88 1.25L291.89 0.499999ZM275.09 6.5V9.83H284.81V6.5H275.09ZM279.14 0.499999C278.12 6.47 276.38 14.42 275 19.13L277.94 20.72C279.41 15.32 281.27 7.25 282.53 0.89L279.14 0.499999ZM276.8 18.68C279.95 20.75 283.76 23.9 285.44 26.15L287.6 23.27C285.86 21.02 281.9 18.11 278.75 16.16L276.8 18.68ZM283.49 6.5V7.16C282.92 16.64 280.25 23.27 275.15 25.94C275.87 26.63 276.83 27.95 277.31 28.82C283.28 25.13 286.16 18.5 286.85 6.8L284.72 6.41L284.09 6.5H283.49ZM325.01 10.73V13.91H336.35V10.73H325.01ZM318.59 24.44V27.62H332.69V24.44H318.59ZM323.3 7.91V19.04H326.96V7.91H323.3ZM316.7 17.18V28.7H320.21V20.36H330.92V28.67H334.61V17.18H316.7ZM322.07 0.529999V5.99H325.82V0.529999H322.07ZM313.07 4.04V7.46H336.77V4.04H313.07ZM311.3 4.04V11.63C311.3 15.98 311.12 22.31 308.6 26.63C309.47 26.99 311.06 28.04 311.72 28.64C314.45 23.93 314.9 16.49 314.9 11.63V4.04H311.3Z" fill="#5B3B6A"/>
</g>
<defs>
<filter id="filter0_d_51_16" x="0.150391" y="0.290039" width="338.619" height="32.8" filterUnits="userSpaceOnUse" color-interpolation-filters="sRGB">
<feFlood flood-opacity="0" result="BackgroundImageFix"/>
<feColorMatrix in="SourceAlpha" type="matrix" values="0 0 0 0 0 0 0 0 0 0 0 0 0 0 0 0 0 0 127 0" result="hardAlpha"/>
<feOffset dy="2"/>
<feGaussianBlur stdDeviation="1"/>
<feComposite in2="hardAlpha" operator="out"/>
<feColorMatrix type="matrix" values="0 0 0 0 0.841667 0 0 0 0 0.662812 0 0 0 0 0.662812 0 0 0 0.35 0"/>
<feBlend mode="normal" in2="BackgroundImageFix" result="effect1_dropShadow_51_16"/>
<feBlend mode="normal" in="SourceGraphic" in2="effect1_dropShadow_51_16" result="shape"/>
</filter>
</defs>
</svg>
